2025-06-08 21:10:38,900 - INFO - Starting pipeline
2025-06-08 21:10:38,900 - INFO - [1/3] Voiceover generation
2025-06-08 21:10:38,901 - INFO - Generating voiceover using elevenlabs
2025-06-08 21:10:38,901 - ERROR - ElevenLabs voice ID not found. Falling back to Coqui TTS.
2025-06-08 21:10:38,901 - INFO - Using Coqui TTS
2025-06-08 21:10:55,644 - INFO - Coqui voiceover generated successfully at output\voice.wav
2025-06-08 21:10:55,645 - INFO - [2/3] Generating subtitles
2025-06-08 21:10:55,646 - INFO - Transcribing audio with Whisper
2025-06-08 21:10:55,649 - ERROR - Whisper not available: argument of type 'NoneType' is not iterable
2025-06-08 21:10:55,649 - INFO - Generating karaoke subtitles
2025-06-08 21:10:55,650 - INFO - Subtitles written to output\subtitles.ass
2025-06-08 21:10:55,650 - INFO - [3/3] Rendering video
2025-06-08 21:10:55,651 - INFO - Starting FFmpeg render
2025-06-08 21:10:55,651 - INFO - Selected background video B:\NewAutoContent\assets\backgrounds\minecraft\Minecraft Parkour Gameplay - NO COPYRIGHT (4K QUALITY).webm
2025-06-08 21:10:55,651 - INFO - Using background video B:\NewAutoContent\assets\backgrounds\minecraft\Minecraft Parkour Gameplay - NO COPYRIGHT (4K QUALITY).webm
2025-06-08 21:10:55,682 - ERROR - ffmpeg failed: ffmpeg version 7.1.1-full_build-www.gyan.dev Copyright (c) 2000-2025 the FFmpeg developers
  built with gcc 14.2.0 (Rev1, Built by MSYS2 project)
  configuration: --enable-gpl --enable-version3 --enable-static --disable-w32threads --disable-autodetect --enable-fontconfig --enable-iconv --enable-gnutls --enable-lcms2 --enable-libxml2 --enable-gmp --enable-bzlib --enable-lzma --enable-libsnappy --enable-zlib --enable-librist --enable-libsrt --enable-libssh --enable-libzmq --enable-avisynth --enable-libbluray --enable-libcaca --enable-libdvdnav --enable-libdvdread --enable-sdl2 --enable-libaribb24 --enable-libaribcaption --enable-libdav1d --enable-libdavs2 --enable-libopenjpeg --enable-libquirc --enable-libuavs3d --enable-libxevd --enable-libzvbi --enable-libqrencode --enable-librav1e --enable-libsvtav1 --enable-libvvenc --enable-libwebp --enable-libx264 --enable-libx265 --enable-libxavs2 --enable-libxeve --enable-libxvid --enable-libaom --enable-libjxl --enable-libvpx --enable-mediafoundation --enable-libass --enable-frei0r --enable-libfreetype --enable-libfribidi --enable-libharfbuzz --enable-liblensfun --enable-libvidstab --enable-libvmaf --enable-libzimg --enable-amf --enable-cuda-llvm --enable-cuvid --enable-dxva2 --enable-d3d11va --enable-d3d12va --enable-ffnvcodec --enable-libvpl --enable-nvdec --enable-nvenc --enable-vaapi --enable-libshaderc --enable-vulkan --enable-libplacebo --enable-opencl --enable-libcdio --enable-libgme --enable-libmodplug --enable-libopenmpt --enable-libopencore-amrwb --enable-libmp3lame --enable-libshine --enable-libtheora --enable-libtwolame --enable-libvo-amrwbenc --enable-libcodec2 --enable-libilbc --enable-libgsm --enable-liblc3 --enable-libopencore-amrnb --enable-libopus --enable-libspeex --enable-libvorbis --enable-ladspa --enable-libbs2b --enable-libflite --enable-libmysofa --enable-librubberband --enable-libsoxr --enable-chromaprint
  libavutil      59. 39.100 / 59. 39.100
  libavcodec     61. 19.101 / 61. 19.101
  libavformat    61.  7.100 / 61.  7.100
  libavdevice    61.  3.100 / 61.  3.100
  libavfilter    10.  4.100 / 10.  4.100
  libswscale      8.  3.100 /  8.  3.100
  libswresample   5.  3.100 /  5.  3.100
  libpostproc    58.  3.100 / 58.  3.100
Input #0, matroska,webm, from 'B:\NewAutoContent\assets\backgrounds\minecraft\Minecraft Parkour Gameplay - NO COPYRIGHT (4K QUALITY).webm':
  Metadata:
    COMPATIBLE_BRANDS: iso6av01mp41
    MAJOR_BRAND     : dash
    MINOR_VERSION   : 0
    ENCODER         : Lavf61.7.100
  Duration: 00:00:59.05, start: 0.000000, bitrate: 683 kb/s
  Stream #0:0: Video: av1 (libdav1d) (Main), yuv420p(tv, bt709), 608x1080, SAR 1:1 DAR 76:135, 30 fps, 30 tbr, 1k tbn (default)
      Metadata:
        HANDLER_NAME    : ISO Media file produced by Google Inc.
        VENDOR_ID       : [0][0][0][0]
        DURATION        : 00:00:59.000000000
  Stream #0:1(eng): Audio: opus, 48000 Hz, stereo, fltp (default)
      Metadata:
        DURATION        : 00:00:59.048000000
[aist#1:0/pcm_s16le @ 0000021864ae1a40] Guessed Channel Layout: mono
Input #1, wav, from 'output\voice.wav':
  Duration: 00:00:09.82, bitrate: 352 kb/s
  Stream #1:0: Audio: pcm_s16le ([1][0][0][0] / 0x0001), 22050 Hz, mono, s16, 352 kb/s
[AVFormatContext @ 0000021864ae2fc0] Unable to choose an output format for 'output\my_story'; use a standard extension for the filename or specify the format manually.
[out#0 @ 0000021864ae4d00] Error initializing the muxer for output\my_story: Invalid argument
Error opening output file output\my_story.
Error opening output files: Invalid argument

2025-06-08 21:10:55,682 - ERROR - Pipeline failed: Command '['ffmpeg', '-y', '-i', 'B:\\NewAutoContent\\assets\\backgrounds\\minecraft\\Minecraft Parkour Gameplay - NO COPYRIGHT (4K QUALITY).webm', '-i', 'output\\voice.wav', '-vf', 'subtitles=output\\subtitles.ass,movie=assets\\watermark.png[wm];[0:v][wm]overlay=W-w-10:H-h-10:format=auto,format=yuv420p', '-s', '1080x1920', 'output\\my_story']' returned non-zero exit status 4294967274.
2025-06-08 21:13:27,937 - INFO - Starting pipeline
2025-06-08 21:13:27,937 - INFO - [1/3] Voiceover generation
2025-06-08 21:13:27,938 - INFO - Generating voiceover using elevenlabs
2025-06-08 21:13:27,938 - ERROR - ElevenLabs voice ID not found. Falling back to Coqui TTS.
2025-06-08 21:13:27,938 - INFO - Using Coqui TTS
2025-06-08 21:13:35,254 - INFO - Coqui voiceover generated successfully at output\voice.wav
2025-06-08 21:13:35,255 - INFO - [2/3] Generating subtitles
2025-06-08 21:13:35,256 - INFO - Transcribing audio with Whisper
2025-06-08 21:13:35,257 - ERROR - Whisper not available: argument of type 'NoneType' is not iterable
2025-06-08 21:13:35,257 - INFO - Generating karaoke subtitles
2025-06-08 21:13:35,258 - INFO - Subtitles written to output\subtitles.ass
2025-06-08 21:13:35,258 - INFO - [3/3] Rendering video
2025-06-08 21:13:35,258 - INFO - Starting FFmpeg render
2025-06-08 21:13:35,259 - INFO - Selected background video B:\NewAutoContent\assets\backgrounds\minecraft\Minecraft Parkour Gameplay - NO COPYRIGHT (4K QUALITY).webm
2025-06-08 21:13:35,259 - INFO - Using background video B:\NewAutoContent\assets\backgrounds\minecraft\Minecraft Parkour Gameplay - NO COPYRIGHT (4K QUALITY).webm
2025-06-08 21:13:35,296 - ERROR - ffmpeg failed: ffmpeg version 7.1.1-full_build-www.gyan.dev Copyright (c) 2000-2025 the FFmpeg developers
  built with gcc 14.2.0 (Rev1, Built by MSYS2 project)
  configuration: --enable-gpl --enable-version3 --enable-static --disable-w32threads --disable-autodetect --enable-fontconfig --enable-iconv --enable-gnutls --enable-lcms2 --enable-libxml2 --enable-gmp --enable-bzlib --enable-lzma --enable-libsnappy --enable-zlib --enable-librist --enable-libsrt --enable-libssh --enable-libzmq --enable-avisynth --enable-libbluray --enable-libcaca --enable-libdvdnav --enable-libdvdread --enable-sdl2 --enable-libaribb24 --enable-libaribcaption --enable-libdav1d --enable-libdavs2 --enable-libopenjpeg --enable-libquirc --enable-libuavs3d --enable-libxevd --enable-libzvbi --enable-libqrencode --enable-librav1e --enable-libsvtav1 --enable-libvvenc --enable-libwebp --enable-libx264 --enable-libx265 --enable-libxavs2 --enable-libxeve --enable-libxvid --enable-libaom --enable-libjxl --enable-libvpx --enable-mediafoundation --enable-libass --enable-frei0r --enable-libfreetype --enable-libfribidi --enable-libharfbuzz --enable-liblensfun --enable-libvidstab --enable-libvmaf --enable-libzimg --enable-amf --enable-cuda-llvm --enable-cuvid --enable-dxva2 --enable-d3d11va --enable-d3d12va --enable-ffnvcodec --enable-libvpl --enable-nvdec --enable-nvenc --enable-vaapi --enable-libshaderc --enable-vulkan --enable-libplacebo --enable-opencl --enable-libcdio --enable-libgme --enable-libmodplug --enable-libopenmpt --enable-libopencore-amrwb --enable-libmp3lame --enable-libshine --enable-libtheora --enable-libtwolame --enable-libvo-amrwbenc --enable-libcodec2 --enable-libilbc --enable-libgsm --enable-liblc3 --enable-libopencore-amrnb --enable-libopus --enable-libspeex --enable-libvorbis --enable-ladspa --enable-libbs2b --enable-libflite --enable-libmysofa --enable-librubberband --enable-libsoxr --enable-chromaprint
  libavutil      59. 39.100 / 59. 39.100
  libavcodec     61. 19.101 / 61. 19.101
  libavformat    61.  7.100 / 61.  7.100
  libavdevice    61.  3.100 / 61.  3.100
  libavfilter    10.  4.100 / 10.  4.100
  libswscale      8.  3.100 /  8.  3.100
  libswresample   5.  3.100 /  5.  3.100
  libpostproc    58.  3.100 / 58.  3.100
Input #0, matroska,webm, from 'B:\NewAutoContent\assets\backgrounds\minecraft\Minecraft Parkour Gameplay - NO COPYRIGHT (4K QUALITY).webm':
  Metadata:
    COMPATIBLE_BRANDS: iso6av01mp41
    MAJOR_BRAND     : dash
    MINOR_VERSION   : 0
    ENCODER         : Lavf61.7.100
  Duration: 00:00:59.05, start: 0.000000, bitrate: 683 kb/s
  Stream #0:0: Video: av1 (libdav1d) (Main), yuv420p(tv, bt709), 608x1080, SAR 1:1 DAR 76:135, 30 fps, 30 tbr, 1k tbn (default)
      Metadata:
        HANDLER_NAME    : ISO Media file produced by Google Inc.
        VENDOR_ID       : [0][0][0][0]
        DURATION        : 00:00:59.000000000
  Stream #0:1(eng): Audio: opus, 48000 Hz, stereo, fltp (default)
      Metadata:
        DURATION        : 00:00:59.048000000
[aist#1:0/pcm_s16le @ 0000024eb4ff1a40] Guessed Channel Layout: mono
Input #1, wav, from 'output\voice.wav':
  Duration: 00:00:09.86, bitrate: 352 kb/s
  Stream #1:0: Audio: pcm_s16le ([1][0][0][0] / 0x0001), 22050 Hz, mono, s16, 352 kb/s
[Parsed_subtitles_0 @ 0000024eb4fedf40] libass API version: 0x1703020
[Parsed_subtitles_0 @ 0000024eb4fedf40] libass source: commit: 0.17.3-79-g1b699559025185e34d21a24cac477ca360cb917d
[Parsed_subtitles_0 @ 0000024eb4fedf40] Shaper: FriBidi 1.0.16 (SIMPLE) HarfBuzz-ng 10.4.0 (COMPLEX)
[Parsed_subtitles_0 @ 0000024eb4fedf40] Unable to open outputsubtitles.ass
[AVFilterGraph @ 0000024eb4fcc380] Error initializing filters
Error opening output file output\my_story.mp4.
Error opening output files: No such file or directory

2025-06-08 21:13:35,296 - ERROR - Pipeline failed: Command '['ffmpeg', '-y', '-i', 'B:\\NewAutoContent\\assets\\backgrounds\\minecraft\\Minecraft Parkour Gameplay - NO COPYRIGHT (4K QUALITY).webm', '-i', 'output\\voice.wav', '-vf', 'subtitles=output\\subtitles.ass,movie=assets\\watermark.png[wm];[0:v][wm]overlay=W-w-10:H-h-10:format=auto,format=yuv420p', '-s', '1080x1920', 'output\\my_story.mp4']' returned non-zero exit status 4294967294.
